<svg width="45" height="65" viewBox="0 0 45 65" fill="none" xmlns="http://www.w3.org/2000/svg">
<path d="M12.7109 48.6875C12.1953 47.7969 11.7812 46.75 11.4688 45.5469C11.1719 44.3438 11.0234 42.7734 11.0234 40.8359C11.0234 38.8984 11.4375 37.1172 12.2656 35.4922C13.1094 33.8516 14.2031 32.5078 15.5469 31.4609C18.1562 29.4453 21.3984 28.4375 25.2734 28.4375C27.2891 28.4375 28.8125 28.4844 29.8438 28.5781C29.8438 28.5781 30.6016 28.6562 32.1172 28.8125V53H27.8984L27.7109 50.2109C26.7734 51.4609 25.3438 52.3906 23.4219 53C22.6875 53.2344 21.9297 53.3516 21.1484 53.3516C20.3828 53.3516 19.625 53.2734 18.875 53.1172C18.125 52.9609 17.375 52.7031 16.625 52.3438C15.8906 51.9844 15.1875 51.5078 14.5156 50.9141C13.8438 50.3047 13.2422 49.5625 12.7109 48.6875ZM27.4297 32.2578C26.4297 32.1328 25.4297 32.0703 24.4297 32.0703C23.4453 32.0703 22.3906 32.25 21.2656 32.6094C20.1406 32.9531 19.1797 33.5 18.3828 34.25C16.7266 35.8125 15.8984 38.1953 15.8984 41.3984C15.8984 44.4297 16.6094 46.6719 18.0312 48.125C19.1094 49.2031 20.4062 49.7422 21.9219 49.7422C23.875 49.7422 25.4844 49.0312 26.75 47.6094C27.0625 47.25 27.2891 46.9297 27.4297 46.6484V32.2578Z" fill="#237E9B"/>
<path d="M8.41406 29.8359L8.4375 48H3.75V23.8125H8.0625L8.39062 26.4609C10.1094 25.0234 12.1094 24.0859 14.3906 23.6484C15.125 23.5078 15.8438 23.4375 16.5469 23.4375C19.4688 23.4375 21.6719 24.6719 23.1562 27.1406C25.875 24.6719 28.7188 23.4375 31.6875 23.4375C34.625 23.4375 36.7656 24.3203 38.1094 26.0859C39.4531 27.8828 40.125 30.8516 40.125 34.9922V48H35.4375V35.1562C35.4375 31.0938 34.4609 28.6641 32.5078 27.8672C31.8516 27.6016 31.0859 27.4688 30.2109 27.4688C28.1172 27.4688 26.1953 28.2188 24.4453 29.7188V48H19.7578V34.9688C19.7578 32.1875 19.3438 30.2344 18.5156 29.1094C17.7188 28.0156 16.2891 27.4688 14.2266 27.4688C12.1797 27.4688 10.2422 28.2578 8.41406 29.8359Z" fill="#1BE5EE"/>
</svg>
