<svg width="132" height="25" viewBox="0 0 132 25" fill="none" xmlns="http://www.w3.org/2000/svg">
<path d="M1.14062 21.125C0.796875 20.5312 0.520833 19.8333 0.3125 19.0312C0.114583 18.2292 0.015625 17.1823 0.015625 15.8906C0.015625 14.599 0.291667 13.4115 0.84375 12.3281C1.40625 11.2344 2.13542 10.3385 3.03125 9.64062C4.77083 8.29688 6.93229 7.625 9.51562 7.625C10.8594 7.625 11.875 7.65625 12.5625 7.71875C12.5625 7.71875 13.0677 7.77083 14.0781 7.875V24H11.2656L11.1406 22.1406C10.5156 22.974 9.5625 23.5938 8.28125 24C7.79167 24.1562 7.28646 24.2344 6.76562 24.2344C6.25521 24.2344 5.75 24.1823 5.25 24.0781C4.75 23.974 4.25 23.8021 3.75 23.5625C3.26042 23.3229 2.79167 23.0052 2.34375 22.6094C1.89583 22.2031 1.49479 21.7083 1.14062 21.125ZM10.9531 10.1719C10.2865 10.0885 9.61979 10.0469 8.95312 10.0469C8.29688 10.0469 7.59375 10.1667 6.84375 10.4062C6.09375 10.6354 5.45312 11 4.92188 11.5C3.81771 12.5417 3.26562 14.1302 3.26562 16.2656C3.26562 18.2865 3.73958 19.7812 4.6875 20.75C5.40625 21.4688 6.27083 21.8281 7.28125 21.8281C8.58333 21.8281 9.65625 21.3542 10.5 20.4062C10.7083 20.1667 10.8594 19.9531 10.9531 19.7656V10.1719ZM29.3281 10.7344C28.7552 10.5677 28.0677 10.4844 27.2656 10.4844C26.474 10.4844 25.8229 10.5677 25.3125 10.7344C24.8021 10.8906 24.3542 11.0833 23.9688 11.3125C23.2604 11.7292 22.7448 12.1979 22.4219 12.7188V24H19.2969V7.875H22.2969L22.4219 10.1094C23.2031 9.13021 24.3438 8.39583 25.8438 7.90625C26.3854 7.71875 27.0052 7.625 27.7031 7.625C28.401 7.625 28.9427 7.67708 29.3281 7.78125V10.7344ZM38.2188 21.5312C38.5625 21.6562 39.0833 21.7188 39.7812 21.7188C40.4792 21.7188 41.0625 21.6354 41.5312 21.4688V23.9688C41.3125 24.0208 40.9948 24.0521 40.5781 24.0625L39.5938 24.0938C39.375 24.0938 39.2083 24.0938 39.0938 24.0938C37.0833 24.0938 35.599 23.4375 34.6406 22.125C33.8698 21.0625 33.4844 19.6562 33.4844 17.9062V10.2656H31.1719V8.79688L33.4844 7.875L34.2344 3.875H36.6094V7.875H41.6094V10.2656H36.6094V17.8906C36.6094 19.9323 37.1458 21.1458 38.2188 21.5312ZM53.2969 24.25C47.401 24.25 44.4531 21.3698 44.4531 15.6094C44.4531 13.1302 45.2708 11.1458 46.9062 9.65625C48.375 8.30208 50.0521 7.625 51.9375 7.625C53.9896 7.625 55.5938 8.3125 56.75 9.6875C57.8229 10.9688 58.3594 12.6823 58.3594 14.8281V16.0469H47.7031C47.7031 18.9948 48.9062 20.7969 51.3125 21.4531C51.8854 21.6094 52.7656 21.6875 53.9531 21.6875C55.151 21.6875 56.3229 21.526 57.4688 21.2031V23.8438C56.3229 24.1146 54.9323 24.25 53.2969 24.25ZM55.2344 13.75C55.2344 12.75 54.9583 11.9062 54.4062 11.2188C53.7604 10.4271 52.8698 10.0312 51.7344 10.0312C50.5365 10.0312 49.5625 10.4115 48.8125 11.1719C48.125 11.8802 47.7812 12.7396 47.7812 13.75H55.2344Z" fill="#237E9B"/>
<path d="M64.9844 11.8906L65 24H61.875V7.875H64.75L64.9688 9.64062C66.1146 8.68229 67.4479 8.05729 68.9688 7.76562C69.4583 7.67188 69.9375 7.625 70.4062 7.625C72.3542 7.625 73.8229 8.44792 74.8125 10.0938C76.625 8.44792 78.5208 7.625 80.5 7.625C82.4583 7.625 83.8854 8.21354 84.7812 9.39062C85.6771 10.5885 86.125 12.5677 86.125 15.3281V24H83V15.4375C83 12.7292 82.349 11.1094 81.0469 10.5781C80.6094 10.401 80.099 10.3125 79.5156 10.3125C78.1198 10.3125 76.8385 10.8125 75.6719 11.8125V24H72.5469V15.3125C72.5469 13.4583 72.2708 12.1562 71.7188 11.4062C71.1875 10.6771 70.2344 10.3125 68.8594 10.3125C67.4948 10.3125 66.2031 10.8385 64.9844 11.8906ZM94.7812 3.1875C94.7812 3.78125 94.5833 4.23958 94.1875 4.5625C93.8021 4.875 93.3177 5.03125 92.7344 5.03125C92.151 5.03125 91.6667 4.875 91.2812 4.5625C90.9062 4.23958 90.7188 3.78125 90.7188 3.1875C90.7188 2.58333 90.9062 2.125 91.2812 1.8125C91.6667 1.5 92.151 1.34375 92.7344 1.34375C93.3177 1.34375 93.8021 1.5 94.1875 1.8125C94.5833 2.125 94.7812 2.58333 94.7812 3.1875ZM91.125 7.875H94.25V24H91.125V7.875ZM106.438 10.3125C104.885 10.3125 103.505 10.8385 102.297 11.8906V24H99.1719V7.875H102.062L102.281 9.625C103.979 8.29167 105.734 7.625 107.547 7.625C109.464 7.625 110.87 8.19792 111.766 9.34375C112.703 10.5521 113.172 12.5 113.172 15.1875V24H110.047V15.1875C110.047 12.6042 109.349 11.0625 107.953 10.5625C107.505 10.3958 107 10.3125 106.438 10.3125ZM120.297 9.64062C121.203 8.94271 122.219 8.43229 123.344 8.10938C124.479 7.78646 125.469 7.625 126.312 7.625C127.156 7.625 127.807 7.64583 128.266 7.6875V0.75H131.375V24H128.578L128.453 22.1406C127.818 22.9844 126.854 23.6094 125.562 24.0156C125.062 24.1719 124.552 24.25 124.031 24.25C123.521 24.25 123.016 24.1979 122.516 24.0938C122.016 23.9896 121.516 23.8177 121.016 23.5781C120.526 23.3281 120.057 23.0052 119.609 22.6094C119.161 22.2031 118.76 21.7083 118.406 21.125C117.656 19.8438 117.281 18.3281 117.281 16.5781C117.281 14.8281 117.557 13.4115 118.109 12.3281C118.672 11.2344 119.401 10.3385 120.297 9.64062ZM122.188 11.5C121.656 12 121.245 12.6458 120.953 13.4375C120.672 14.2188 120.531 15.1719 120.531 16.2969C120.531 17.4115 120.667 18.3333 120.938 19.0625C121.208 19.7812 121.547 20.3438 121.953 20.75C122.672 21.4792 123.536 21.8438 124.547 21.8438C125.849 21.8438 126.927 21.3646 127.781 20.4062C128 20.1667 128.156 19.9531 128.25 19.7656V10.1562L127.938 10.125C127.458 10.0625 126.885 10.0312 126.219 10.0312C125.562 10.0312 124.859 10.151 124.109 10.3906C123.359 10.6198 122.719 10.9896 122.188 11.5Z" fill="#1BE5EE"/>
</svg>
